%TF.GenerationSoftware,KiCad,Pcbnew,10.0.0*%
%TF.CreationDate,2026-05-05T02:45:14-05:00*%
%TF.ProjectId,Nicholas_Melendez_EtchASketch,4e696368-6f6c-4617-935f-4d656c656e64,1*%
%TF.SameCoordinates,Original*%
%TF.FileFunction,Copper,L4,Bot*%
%TF.FilePolarity,Positive*%
%FSLAX46Y46*%
G04 Gerber Fmt 4.6, Leading zero omitted, Abs format (unit mm)*
G04 Created by KiCad (PCBNEW 10.0.0) date 2026-05-05 02:45:14*
%MOMM*%
%LPD*%
G01*
G04 APERTURE LIST*
G04 Aperture macros list*
%AMRoundRect*
0 Rectangle with rounded corners*
0 $1 Rounding radius*
0 $2 $3 $4 $5 $6 $7 $8 $9 X,Y pos of 4 corners*
0 Add a 4 corners polygon primitive as box body*
4,1,4,$2,$3,$4,$5,$6,$7,$8,$9,$2,$3,0*
0 Add four circle primitives for the rounded corners*
1,1,$1+$1,$2,$3*
1,1,$1+$1,$4,$5*
1,1,$1+$1,$6,$7*
1,1,$1+$1,$8,$9*
0 Add four rect primitives between the rounded corners*
20,1,$1+$1,$2,$3,$4,$5,0*
20,1,$1+$1,$4,$5,$6,$7,0*
20,1,$1+$1,$6,$7,$8,$9,0*
20,1,$1+$1,$8,$9,$2,$3,0*%
%AMOutline5P*
0 Free polygon, 5 corners , with rotation*
0 The origin of the aperture is its center*
0 number of corners: always 5*
0 $1 to $10 corner X, Y*
0 $11 Rotation angle, in degrees counterclockwise*
0 create outline with 5 corners*
4,1,5,$1,$2,$3,$4,$5,$6,$7,$8,$9,$10,$1,$2,$11*%
%AMOutline6P*
0 Free polygon, 6 corners , with rotation*
0 The origin of the aperture is its center*
0 number of corners: always 6*
0 $1 to $12 corner X, Y*
0 $13 Rotation angle, in degrees counterclockwise*
0 create outline with 6 corners*
4,1,6,$1,$2,$3,$4,$5,$6,$7,$8,$9,$10,$11,$12,$1,$2,$13*%
%AMOutline7P*
0 Free polygon, 7 corners , with rotation*
0 The origin of the aperture is its center*
0 number of corners: always 7*
0 $1 to $14 corner X, Y*
0 $15 Rotation angle, in degrees counterclockwise*
0 create outline with 7 corners*
4,1,7,$1,$2,$3,$4,$5,$6,$7,$8,$9,$10,$11,$12,$13,$14,$1,$2,$15*%
%AMOutline8P*
0 Free polygon, 8 corners , with rotation*
0 The origin of the aperture is its center*
0 number of corners: always 8*
0 $1 to $16 corner X, Y*
0 $17 Rotation angle, in degrees counterclockwise*
0 create outline with 8 corners*
4,1,8,$1,$2,$3,$4,$5,$6,$7,$8,$9,$10,$11,$12,$13,$14,$15,$16,$1,$2,$17*%
G04 Aperture macros list end*
%TA.AperFunction,SMDPad,CuDef*%
%ADD10RoundRect,0.508000X0.000010X0.000010X-0.000010X0.000010X-0.000010X-0.000010X0.000010X-0.000010X0*%
%TD*%
%TA.AperFunction,ComponentPad*%
%ADD11C,4.445000*%
%TD*%
%TA.AperFunction,ComponentPad*%
%ADD12C,1.400000*%
%TD*%
%TA.AperFunction,ComponentPad*%
%ADD13C,3.600000*%
%TD*%
%TA.AperFunction,ComponentPad*%
%ADD14C,1.676400*%
%TD*%
%TA.AperFunction,ComponentPad*%
%ADD15R,1.676400X1.676400*%
%TD*%
%TA.AperFunction,ComponentPad*%
%ADD16C,1.960000*%
%TD*%
%TA.AperFunction,ComponentPad*%
%ADD17Outline8P,-0.762000X0.315631X-0.315631X0.762000X0.315631X0.762000X0.762000X0.315631X0.762000X-0.315631X0.315631X-0.762000X-0.315631X-0.762000X-0.762000X-0.315631X270.000000*%
%TD*%
%TA.AperFunction,ComponentPad*%
%ADD18R,1.524000X1.524000*%
%TD*%
%TA.AperFunction,ComponentPad*%
%ADD19C,3.220000*%
%TD*%
%TA.AperFunction,ComponentPad*%
%ADD20C,1.288000*%
%TD*%
%TA.AperFunction,ComponentPad*%
%ADD21R,1.288000X1.288000*%
%TD*%
%TA.AperFunction,ViaPad*%
%ADD22C,0.609600*%
%TD*%
%TA.AperFunction,Conductor*%
%ADD23C,0.254000*%
%TD*%
G04 APERTURE END LIST*
D10*
%TO.P,FUD4,P$1*%
%TO.N,N/C*%
X102781100Y-150723600D03*
%TD*%
%TO.P,FUD5,P$1*%
%TO.N,N/C*%
X191681100Y-150723600D03*
%TD*%
%TO.P,FUD6,P$1*%
%TO.N,N/C*%
X98971100Y-60553600D03*
%TD*%
D11*
%TO.P,MGT1,P$1*%
%TO.N,CGND*%
X90081100Y-150723600D03*
%TD*%
%TO.P,MGT2,P$1*%
%TO.N,CGND*%
X206921100Y-150723600D03*
%TD*%
%TO.P,MGT3,P$1*%
%TO.N,CGND*%
X206921100Y-60553600D03*
%TD*%
%TO.P,MGT4,P$1*%
%TO.N,CGND*%
X90081100Y-60553600D03*
%TD*%
D12*
%TO.P,R1,CW*%
%TO.N,ANALOG_GND*%
X129411100Y-143103600D03*
%TO.P,R1,S*%
%TO.N,POT_1*%
X126911100Y-143103600D03*
%TO.P,R1,CCW*%
%TO.N,VDD_1P8V*%
X124411100Y-143103600D03*
%TD*%
%TO.P,R2,CW*%
%TO.N,ANALOG_GND*%
X172591100Y-143103600D03*
%TO.P,R2,S*%
%TO.N,POT_2*%
X170091100Y-143103600D03*
%TO.P,R2,CCW*%
%TO.N,VDD_1P8V*%
X167591100Y-143103600D03*
%TD*%
D13*
%TO.P,SPIDISPLAY0,P$1@U$17*%
%TO.N,N/C*%
X105321100Y-61188600D03*
%TO.P,SPIDISPLAY0,P$1@U$16*%
X105321100Y-118338600D03*
%TO.P,SPIDISPLAY0,P$1@U$15*%
X181521100Y-61188600D03*
%TO.P,SPIDISPLAY0,P$1@U$7*%
X181521100Y-118338600D03*
D14*
%TO.P,SPIDISPLAY0,20@JP2*%
X181521100Y-65633600D03*
%TO.P,SPIDISPLAY0,19@JP2*%
X181521100Y-68173600D03*
%TO.P,SPIDISPLAY0,18@JP2*%
X181521100Y-70713600D03*
%TO.P,SPIDISPLAY0,17@JP2*%
X181521100Y-73253600D03*
%TO.P,SPIDISPLAY0,16@JP2*%
X181521100Y-75793600D03*
%TO.P,SPIDISPLAY0,15@JP2*%
X181521100Y-78333600D03*
%TO.P,SPIDISPLAY0,14@JP2*%
X181521100Y-80873600D03*
%TO.P,SPIDISPLAY0,13@JP2*%
X181521100Y-83413600D03*
%TO.P,SPIDISPLAY0,12@JP2*%
X181521100Y-85953600D03*
%TO.P,SPIDISPLAY0,GND@1*%
X181521100Y-88493600D03*
%TO.P,SPIDISPLAY0,LITE*%
X181521100Y-91033600D03*
%TO.P,SPIDISPLAY0,RST*%
%TO.N,RST*%
X181521100Y-93573600D03*
%TO.P,SPIDISPLAY0,DC*%
%TO.N,DC*%
X181521100Y-96113600D03*
%TO.P,SPIDISPLAY0,CS*%
%TO.N,CS*%
X181521100Y-98653600D03*
%TO.P,SPIDISPLAY0,MOSI*%
%TO.N,MOSI*%
X181521100Y-101193600D03*
%TO.P,SPIDISPLAY0,MISO*%
%TO.N,MISO*%
X181521100Y-103733600D03*
%TO.P,SPIDISPLAY0,CLK*%
%TO.N,CLK*%
X181521100Y-106273600D03*
%TO.P,SPIDISPLAY0,3VO*%
%TO.N,N/C*%
X181521100Y-108813600D03*
%TO.P,SPIDISPLAY0,VIN*%
%TO.N,VDD_3P3V*%
X181521100Y-111353600D03*
D15*
%TO.P,SPIDISPLAY0,GND*%
%TO.N,GND*%
X181521100Y-113893600D03*
%TD*%
D16*
%TO.P,SW1,1*%
%TO.N,BUTTON_1*%
X191781100Y-127903600D03*
%TO.P,SW1,2*%
%TO.N,GND*%
X191781100Y-132903600D03*
%TO.P,SW1,4*%
X204281100Y-132903600D03*
%TO.P,SW1,3*%
%TO.N,BUTTON_1*%
X204281100Y-127903600D03*
%TD*%
%TO.P,SW2,1*%
%TO.N,BUTTON_2*%
X97801100Y-127903600D03*
%TO.P,SW2,2*%
%TO.N,GND*%
X97801100Y-132903600D03*
%TO.P,SW2,4*%
X110301100Y-132903600D03*
%TO.P,SW2,3*%
%TO.N,BUTTON_2*%
X110301100Y-127903600D03*
%TD*%
D17*
%TO.P,U1,P2_36*%
%TO.N,N/C*%
X137351100Y-104563600D03*
%TO.P,U1,P2_35*%
X139891100Y-104563600D03*
%TO.P,U1,P2_34*%
X137351100Y-102023600D03*
%TO.P,U1,P2_33*%
X139891100Y-102023600D03*
%TO.P,U1,P2_32*%
X137351100Y-99483600D03*
%TO.P,U1,P2_31*%
%TO.N,CS*%
X139891100Y-99483600D03*
%TO.P,U1,P2_30*%
%TO.N,N/C*%
X137351100Y-96943600D03*
%TO.P,U1,P2_29*%
%TO.N,CLK*%
X139891100Y-96943600D03*
%TO.P,U1,P2_28*%
%TO.N,N/C*%
X137351100Y-94403600D03*
%TO.P,U1,P2_27*%
%TO.N,MISO*%
X139891100Y-94403600D03*
%TO.P,U1,P2_26*%
%TO.N,N/C*%
X137351100Y-91863600D03*
%TO.P,U1,P2_25*%
%TO.N,MOSI*%
X139891100Y-91863600D03*
%TO.P,U1,P2_24*%
%TO.N,DC*%
X137351100Y-89323600D03*
%TO.P,U1,P2_23*%
%TO.N,VDD_3P3V*%
X139891100Y-89323600D03*
%TO.P,U1,P2_22*%
%TO.N,N/C*%
X137351100Y-86783600D03*
%TO.P,U1,P2_21*%
%TO.N,GND*%
X139891100Y-86783600D03*
%TO.P,U1,P2_20*%
%TO.N,N/C*%
X137351100Y-84243600D03*
%TO.P,U1,P2_19*%
%TO.N,RST*%
X139891100Y-84243600D03*
%TO.P,U1,P2_18*%
%TO.N,BLUE_LED*%
X137351100Y-81703600D03*
%TO.P,U1,P2_17*%
%TO.N,N/C*%
X139891100Y-81703600D03*
%TO.P,U1,P2_16*%
X137351100Y-79163600D03*
%TO.P,U1,P2_15*%
%TO.N,GND*%
X139891100Y-79163600D03*
%TO.P,U1,P2_14*%
%TO.N,BAT.VIN*%
X137351100Y-76623600D03*
%TO.P,U1,P2_13*%
%TO.N,VDD_5V*%
X139891100Y-76623600D03*
%TO.P,U1,P2_12*%
%TO.N,N/C*%
X137351100Y-74083600D03*
%TO.P,U1,P2_11*%
X139891100Y-74083600D03*
%TO.P,U1,P2_10*%
%TO.N,GREEN_LED*%
X137351100Y-71543600D03*
%TO.P,U1,P2_09*%
%TO.N,N/C*%
X139891100Y-71543600D03*
%TO.P,U1,P2_08*%
X137351100Y-69003600D03*
%TO.P,U1,P2_07*%
X139891100Y-69003600D03*
%TO.P,U1,P2_06*%
%TO.N,RED_LED*%
X137351100Y-66463600D03*
%TO.P,U1,P2_05*%
%TO.N,N/C*%
X139891100Y-66463600D03*
%TO.P,U1,P2_04*%
X137351100Y-63923600D03*
%TO.P,U1,P2_03*%
X139891100Y-63923600D03*
%TO.P,U1,P2_02*%
X137351100Y-61383600D03*
D18*
%TO.P,U1,P2_01*%
X139891100Y-61383600D03*
D17*
%TO.P,U1,P1_36*%
X162751100Y-104563600D03*
%TO.P,U1,P1_35*%
X165291100Y-104563600D03*
%TO.P,U1,P1_34*%
%TO.N,BUTTON_2*%
X162751100Y-102023600D03*
%TO.P,U1,P1_33*%
%TO.N,N/C*%
X165291100Y-102023600D03*
%TO.P,U1,P1_32*%
X162751100Y-99483600D03*
%TO.P,U1,P1_31*%
X165291100Y-99483600D03*
%TO.P,U1,P1_30*%
X162751100Y-96943600D03*
%TO.P,U1,P1_29*%
X165291100Y-96943600D03*
%TO.P,U1,P1_28*%
X162751100Y-94403600D03*
%TO.P,U1,P1_27*%
X165291100Y-94403600D03*
%TO.P,U1,P1_26*%
X162751100Y-91863600D03*
%TO.P,U1,P1_25*%
X165291100Y-91863600D03*
%TO.P,U1,P1_24*%
%TO.N,VDD_5V*%
X162751100Y-89323600D03*
%TO.P,U1,P1_23*%
%TO.N,N/C*%
X165291100Y-89323600D03*
%TO.P,U1,P1_22*%
%TO.N,GND*%
X162751100Y-86783600D03*
%TO.P,U1,P1_21*%
%TO.N,POT_2*%
X165291100Y-86783600D03*
%TO.P,U1,P1_20*%
%TO.N,N/C*%
X162751100Y-84243600D03*
%TO.P,U1,P1_19*%
%TO.N,POT_1*%
X165291100Y-84243600D03*
%TO.P,U1,P1_18*%
%TO.N,VDD_1P8V*%
X162751100Y-81703600D03*
%TO.P,U1,P1_17*%
%TO.N,ANALOG_GND*%
X165291100Y-81703600D03*
%TO.P,U1,P1_16*%
%TO.N,GND*%
X162751100Y-79163600D03*
%TO.P,U1,P1_15*%
X165291100Y-79163600D03*
%TO.P,U1,P1_14*%
%TO.N,VDD_3P3V*%
X162751100Y-76623600D03*
%TO.P,U1,P1_13*%
%TO.N,N/C*%
X165291100Y-76623600D03*
%TO.P,U1,P1_12*%
X162751100Y-74083600D03*
%TO.P,U1,P1_11*%
%TO.N,DP*%
X165291100Y-74083600D03*
%TO.P,U1,P1_10*%
%TO.N,N/C*%
X162751100Y-71543600D03*
%TO.P,U1,P1_09*%
%TO.N,DM*%
X165291100Y-71543600D03*
%TO.P,U1,P1_08*%
%TO.N,N/C*%
X162751100Y-69003600D03*
%TO.P,U1,P1_07*%
X165291100Y-69003600D03*
%TO.P,U1,P1_06*%
X162751100Y-66463600D03*
%TO.P,U1,P1_05*%
X165291100Y-66463600D03*
%TO.P,U1,P1_04*%
%TO.N,BUTTON_1*%
X162751100Y-63923600D03*
%TO.P,U1,P1_03*%
%TO.N,N/C*%
X165291100Y-63923600D03*
%TO.P,U1,P1_02*%
X162751100Y-61383600D03*
D18*
%TO.P,U1,P1_01*%
%TO.N,VIN*%
X165291100Y-61383600D03*
%TD*%
D19*
%TO.P,USBPORT0,SH2*%
%TO.N,CGND*%
X200481100Y-66733600D03*
%TO.P,USBPORT0,SH1*%
X187341100Y-66733600D03*
D20*
%TO.P,USBPORT0,4*%
%TO.N,GND*%
X197411100Y-69443600D03*
%TO.P,USBPORT0,3*%
%TO.N,DP*%
X194911100Y-69443600D03*
%TO.P,USBPORT0,2*%
%TO.N,DM*%
X192911100Y-69443600D03*
D21*
%TO.P,USBPORT0,1*%
%TO.N,VDD_5V*%
X190411100Y-69443600D03*
%TD*%
D22*
%TO.N,VDD_1P8V*%
X151041100Y-82143600D03*
X161201100Y-143103600D03*
%TO.N,GND*%
X92621100Y-64363600D03*
X97701100Y-69443600D03*
X97701100Y-84683600D03*
X97701100Y-102463600D03*
X95161100Y-132943600D03*
%TD*%
%TO.N,CGND*%
D23*
X200481100Y-66733600D02*
X187341100Y-66733600D01*
X206921100Y-59283600D02*
X206921100Y-60553600D01*
X98974625Y-58799600D02*
X182510656Y-58799600D01*
X97220625Y-60553600D02*
X98974625Y-58799600D01*
X182994656Y-59283600D02*
X206921100Y-59283600D01*
X182510656Y-58799600D02*
X182994656Y-59283600D01*
X90081100Y-60553600D02*
X97220625Y-60553600D01*
X200741100Y-66733600D02*
X200481100Y-66733600D01*
X206921100Y-60553600D02*
X200741100Y-66733600D01*
X206921100Y-150723600D02*
X206921100Y-60553600D01*
X87541100Y-148183600D02*
X87541100Y-63093600D01*
X87541100Y-63093600D02*
X90081100Y-60553600D01*
X90081100Y-150723600D02*
X87541100Y-148183600D01*
%TO.N,ANALOG_GND*%
X172591100Y-89003600D02*
X172591100Y-143103600D01*
X165291100Y-81703600D02*
X172591100Y-89003600D01*
%TO.N,VDD_5V*%
X163894100Y-84717050D02*
X163894100Y-84683600D01*
X162277650Y-62780600D02*
X161201100Y-63857150D01*
X163894100Y-84717050D02*
X163894100Y-87257050D01*
X163894100Y-81230150D02*
X163894100Y-84683600D01*
X162158100Y-80560600D02*
X163224550Y-80560600D01*
X161201100Y-79603600D02*
X162158100Y-80560600D01*
X163894100Y-87257050D02*
X162751100Y-88400050D01*
X162751100Y-88400050D02*
X162751100Y-89323600D01*
X163224550Y-80560600D02*
X163894100Y-81230150D01*
X161201100Y-63857150D02*
X161201100Y-79603600D01*
X169887550Y-69443600D02*
X165764550Y-65320600D01*
X190411100Y-69443600D02*
X169887550Y-69443600D01*
X163894100Y-64143050D02*
X163894100Y-63450150D01*
X165071650Y-65320600D02*
X163894100Y-64143050D01*
X165764550Y-65320600D02*
X165071650Y-65320600D01*
X163224550Y-62780600D02*
X162277650Y-62780600D01*
X163894100Y-63450150D02*
X163224550Y-62780600D01*
%TO.N,BUTTON_1*%
X165510550Y-75226600D02*
X166374325Y-76090375D01*
X164817650Y-75226600D02*
X165510550Y-75226600D01*
X164148100Y-74557050D02*
X164817650Y-75226600D01*
X164148100Y-73864150D02*
X164148100Y-74557050D01*
X163834325Y-73550375D02*
X164148100Y-73864150D01*
X163834325Y-72076825D02*
X163834325Y-73550375D01*
X163894100Y-65066600D02*
X163894100Y-72017050D01*
X163466100Y-64638600D02*
X163894100Y-65066600D01*
X163894100Y-72017050D02*
X163834325Y-72076825D01*
X166434100Y-79756600D02*
X166434100Y-76150150D01*
X166374325Y-76090375D02*
X166434100Y-76150150D01*
X194221100Y-99923600D02*
X194221100Y-125463600D01*
X166434100Y-79756600D02*
X180301900Y-93624400D01*
X194221100Y-125463600D02*
X191781100Y-127903600D01*
X191681100Y-97383600D02*
X194221100Y-99923600D01*
X181117687Y-94894400D02*
X182026112Y-94894400D01*
X180301900Y-94078613D02*
X181117687Y-94894400D01*
X182026112Y-94894400D02*
X184515312Y-97383600D01*
X184515312Y-97383600D02*
X191681100Y-97383600D01*
X180301900Y-93624400D02*
X180301900Y-94078613D01*
X162751100Y-63923600D02*
X163466100Y-64638600D01*
%TO.N,DP*%
X189881900Y-74472800D02*
X181016087Y-74472800D01*
X194911100Y-69443600D02*
X189881900Y-74472800D01*
X180626887Y-74083600D02*
X165291100Y-74083600D01*
X181016087Y-74472800D02*
X180626887Y-74083600D01*
%TO.N,DM*%
X190421900Y-71932800D02*
X181016087Y-71932800D01*
X192911100Y-69443600D02*
X190421900Y-71932800D01*
X180626887Y-71543600D02*
X165291100Y-71543600D01*
X181016087Y-71932800D02*
X180626887Y-71543600D01*
%TO.N,POT_1*%
X168821100Y-150723600D02*
X130721100Y-150723600D01*
X126911100Y-146913600D02*
X126911100Y-143103600D01*
X130721100Y-150723600D02*
X126911100Y-146913600D01*
X171361100Y-148183600D02*
X168821100Y-150723600D01*
X171361100Y-90313600D02*
X171361100Y-148183600D01*
X171086100Y-90038600D02*
X171361100Y-90313600D01*
X165291100Y-84243600D02*
X171086100Y-90038600D01*
%TO.N,POT_2*%
X170091100Y-91583600D02*
X170091100Y-143103600D01*
X165291100Y-86783600D02*
X170091100Y-91583600D01*
%TO.N,VDD_1P8V*%
X151041100Y-132943600D02*
X151041100Y-82143600D01*
X161201100Y-143103600D02*
X151041100Y-132943600D01*
%TD*%
M02*
