%TF.GenerationSoftware,KiCad,Pcbnew,10.0.0*%
%TF.CreationDate,2026-05-05T02:45:14-05:00*%
%TF.ProjectId,Nicholas_Melendez_EtchASketch,4e696368-6f6c-4617-935f-4d656c656e64,1*%
%TF.SameCoordinates,Original*%
%TF.FileFunction,Soldermask,Top*%
%TF.FilePolarity,Negative*%
%FSLAX46Y46*%
G04 Gerber Fmt 4.6, Leading zero omitted, Abs format (unit mm)*
G04 Created by KiCad (PCBNEW 10.0.0) date 2026-05-05 02:45:14*
%MOMM*%
%LPD*%
G01*
G04 APERTURE LIST*
G04 Aperture macros list*
%AMRoundRect*
0 Rectangle with rounded corners*
0 $1 Rounding radius*
0 $2 $3 $4 $5 $6 $7 $8 $9 X,Y pos of 4 corners*
0 Add a 4 corners polygon primitive as box body*
4,1,4,$2,$3,$4,$5,$6,$7,$8,$9,$2,$3,0*
0 Add four circle primitives for the rounded corners*
1,1,$1+$1,$2,$3*
1,1,$1+$1,$4,$5*
1,1,$1+$1,$6,$7*
1,1,$1+$1,$8,$9*
0 Add four rect primitives between the rounded corners*
20,1,$1+$1,$2,$3,$4,$5,0*
20,1,$1+$1,$4,$5,$6,$7,0*
20,1,$1+$1,$6,$7,$8,$9,0*
20,1,$1+$1,$8,$9,$2,$3,0*%
%AMFreePoly0*
4,1,25,0.364611,0.820373,0.369513,0.815882,0.815882,0.369513,0.837910,0.322272,0.838200,0.315631,0.838200,-0.315631,0.820373,-0.364611,0.815882,-0.369513,0.369513,-0.815882,0.322272,-0.837910,0.315631,-0.838200,-0.315631,-0.838200,-0.364611,-0.820373,-0.369513,-0.815882,-0.815882,-0.369513,-0.837910,-0.322272,-0.838200,-0.315631,-0.838200,0.315631,-0.820373,0.364611,-0.815882,0.369513,
-0.369513,0.815882,-0.322272,0.837910,-0.315631,0.838200,0.315631,0.838200,0.364611,0.820373,0.364611,0.820373,$1*%
G04 Aperture macros list end*
%ADD10C,0.609600*%
%ADD11RoundRect,0.076200X-0.400000X-0.400000X0.400000X-0.400000X0.400000X0.400000X-0.400000X0.400000X0*%
%ADD12RoundRect,0.584200X-0.000010X-0.000010X0.000010X-0.000010X0.000010X0.000010X-0.000010X0.000010X0*%
%ADD13C,4.597400*%
%ADD14C,2.500000*%
%ADD15C,1.552400*%
%ADD16RoundRect,0.076200X-0.474979X-0.515620X0.474979X-0.515620X0.474979X0.515620X-0.474979X0.515620X0*%
%ADD17RoundRect,0.076200X0.515620X-0.474979X0.515620X0.474979X-0.515620X0.474979X-0.515620X-0.474979X0*%
%ADD18RoundRect,0.076200X0.474979X0.515620X-0.474979X0.515620X-0.474979X-0.515620X0.474979X-0.515620X0*%
%ADD19C,3.752400*%
%ADD20C,1.828800*%
%ADD21RoundRect,0.076200X0.838200X0.838200X-0.838200X0.838200X-0.838200X-0.838200X0.838200X-0.838200X0*%
%ADD22C,2.112400*%
%ADD23FreePoly0,270.000000*%
%ADD24RoundRect,0.076200X-0.762000X0.762000X-0.762000X-0.762000X0.762000X-0.762000X0.762000X0.762000X0*%
%ADD25C,3.372400*%
%ADD26C,1.440400*%
%ADD27RoundRect,0.076200X-0.644000X-0.644000X0.644000X-0.644000X0.644000X0.644000X-0.644000X0.644000X0*%
G04 APERTURE END LIST*
%TO.C,FUD1*%
D10*
X95923100Y-60553600D02*
G75*
G02*
X94399100Y-60553600I-762000J0D01*
G01*
X94399100Y-60553600D02*
G75*
G02*
X95923100Y-60553600I762000J0D01*
G01*
%TO.C,FUD2*%
X197523100Y-150723600D02*
G75*
G02*
X195999100Y-150723600I-762000J0D01*
G01*
X195999100Y-150723600D02*
G75*
G02*
X197523100Y-150723600I762000J0D01*
G01*
%TO.C,FUD3*%
X98463100Y-150723600D02*
G75*
G02*
X96939100Y-150723600I-762000J0D01*
G01*
X96939100Y-150723600D02*
G75*
G02*
X98463100Y-150723600I762000J0D01*
G01*
%TD*%
D11*
%TO.C,D1*%
X95911100Y-102463600D03*
X94411100Y-102463600D03*
%TD*%
%TO.C,D2*%
X95911100Y-84683600D03*
X94411100Y-84683600D03*
%TD*%
%TO.C,D3*%
X95911100Y-68173600D03*
X94411100Y-68173600D03*
%TD*%
D12*
%TO.C,FUD1*%
X95161100Y-60553600D03*
%TD*%
%TO.C,FUD2*%
X196761100Y-150723600D03*
%TD*%
%TO.C,FUD3*%
X97701100Y-150723600D03*
%TD*%
D13*
%TO.C,MGT1*%
X90081100Y-150723600D03*
%TD*%
%TO.C,MGT2*%
X206921100Y-150723600D03*
%TD*%
%TO.C,MGT3*%
X206921100Y-60553600D03*
%TD*%
%TO.C,MGT4*%
X90081100Y-60553600D03*
%TD*%
D14*
%TO.C,R1*%
X131911100Y-136103600D03*
X121911100Y-136103600D03*
D15*
X129411100Y-143103600D03*
X126911100Y-143103600D03*
X124411100Y-143103600D03*
%TD*%
D14*
%TO.C,R2*%
X175091100Y-136103600D03*
X165091100Y-136103600D03*
D15*
X172591100Y-143103600D03*
X170091100Y-143103600D03*
X167591100Y-143103600D03*
%TD*%
D16*
%TO.C,R3*%
X90881200Y-68173600D03*
X89281000Y-68173600D03*
%TD*%
D17*
%TO.C,R4*%
X110401100Y-121983500D03*
X110401100Y-123583700D03*
%TD*%
D18*
%TO.C,R5*%
X190881000Y-125323600D03*
X192481200Y-125323600D03*
%TD*%
D19*
%TO.C,SPIDISPLAY0*%
X105321100Y-61188600D03*
X105321100Y-118338600D03*
X181521100Y-61188600D03*
X181521100Y-118338600D03*
D20*
X181521100Y-65633600D03*
X181521100Y-68173600D03*
X181521100Y-70713600D03*
X181521100Y-73253600D03*
X181521100Y-75793600D03*
X181521100Y-78333600D03*
X181521100Y-80873600D03*
X181521100Y-83413600D03*
X181521100Y-85953600D03*
X181521100Y-88493600D03*
X181521100Y-91033600D03*
X181521100Y-93573600D03*
X181521100Y-96113600D03*
X181521100Y-98653600D03*
X181521100Y-101193600D03*
X181521100Y-103733600D03*
X181521100Y-106273600D03*
X181521100Y-108813600D03*
X181521100Y-111353600D03*
D21*
X181521100Y-113893600D03*
%TD*%
D22*
%TO.C,SW1*%
X191781100Y-127903600D03*
X191781100Y-132903600D03*
X204281100Y-132903600D03*
X204281100Y-127903600D03*
%TD*%
%TO.C,SW2*%
X97801100Y-127903600D03*
X97801100Y-132903600D03*
X110301100Y-132903600D03*
X110301100Y-127903600D03*
%TD*%
D23*
%TO.C,U1*%
X137351100Y-104563600D03*
X139891100Y-104563600D03*
X137351100Y-102023600D03*
X139891100Y-102023600D03*
X137351100Y-99483600D03*
X139891100Y-99483600D03*
X137351100Y-96943600D03*
X139891100Y-96943600D03*
X137351100Y-94403600D03*
X139891100Y-94403600D03*
X137351100Y-91863600D03*
X139891100Y-91863600D03*
X137351100Y-89323600D03*
X139891100Y-89323600D03*
X137351100Y-86783600D03*
X139891100Y-86783600D03*
X137351100Y-84243600D03*
X139891100Y-84243600D03*
X137351100Y-81703600D03*
X139891100Y-81703600D03*
X137351100Y-79163600D03*
X139891100Y-79163600D03*
X137351100Y-76623600D03*
X139891100Y-76623600D03*
X137351100Y-74083600D03*
X139891100Y-74083600D03*
X137351100Y-71543600D03*
X139891100Y-71543600D03*
X137351100Y-69003600D03*
X139891100Y-69003600D03*
X137351100Y-66463600D03*
X139891100Y-66463600D03*
X137351100Y-63923600D03*
X139891100Y-63923600D03*
X137351100Y-61383600D03*
D24*
X139891100Y-61383600D03*
D23*
X162751100Y-104563600D03*
X165291100Y-104563600D03*
X162751100Y-102023600D03*
X165291100Y-102023600D03*
X162751100Y-99483600D03*
X165291100Y-99483600D03*
X162751100Y-96943600D03*
X165291100Y-96943600D03*
X162751100Y-94403600D03*
X165291100Y-94403600D03*
X162751100Y-91863600D03*
X165291100Y-91863600D03*
X162751100Y-89323600D03*
X165291100Y-89323600D03*
X162751100Y-86783600D03*
X165291100Y-86783600D03*
X162751100Y-84243600D03*
X165291100Y-84243600D03*
X162751100Y-81703600D03*
X165291100Y-81703600D03*
X162751100Y-79163600D03*
X165291100Y-79163600D03*
X162751100Y-76623600D03*
X165291100Y-76623600D03*
X162751100Y-74083600D03*
X165291100Y-74083600D03*
X162751100Y-71543600D03*
X165291100Y-71543600D03*
X162751100Y-69003600D03*
X165291100Y-69003600D03*
X162751100Y-66463600D03*
X165291100Y-66463600D03*
X162751100Y-63923600D03*
X165291100Y-63923600D03*
X162751100Y-61383600D03*
D24*
X165291100Y-61383600D03*
%TD*%
D25*
%TO.C,USBPORT0*%
X200481100Y-66733600D03*
X187341100Y-66733600D03*
D26*
X197411100Y-69443600D03*
X194911100Y-69443600D03*
X192911100Y-69443600D03*
D27*
X190411100Y-69443600D03*
%TD*%
M02*
