M48
; DRILL file KiCad 10.0.0 date 2026-05-05T15:08:40
; FORMAT={-:-/ absolute / metric / decimal}
; #@! TF.CreationDate,2026-05-05T15:08:40-05:00
; #@! TF.GenerationSoftware,Kicad,Pcbnew,10.0.0
; #@! TF.FileFunction,Plated,1,4,PTH
FMAT,2
METRIC
; #@! TA.AperFunction,Plated,PTH,ViaDrill
T1C0.305
; #@! TA.AperFunction,Plated,PTH,ComponentDrill
T2C0.889
; #@! TA.AperFunction,Plated,PTH,ComponentDrill
T3C0.920
; #@! TA.AperFunction,Plated,PTH,ComponentDrill
T4C1.000
; #@! TA.AperFunction,Plated,PTH,ComponentDrill
T5C1.400
; #@! TA.AperFunction,Plated,PTH,ComponentDrill
T6C2.300
; #@! TA.AperFunction,Plated,PTH,ComponentDrill
T7C3.000
; #@! TA.AperFunction,Plated,PTH,ComponentDrill
T8C3.175
%
G90
G05
T1
X92.621Y-64.364
X95.161Y-132.944
X97.701Y-69.444
X97.701Y-84.684
X97.701Y-102.464
X151.041Y-82.144
X161.201Y-143.104
T2
X137.351Y-61.384
X137.351Y-63.924
X137.351Y-66.464
X137.351Y-69.004
X137.351Y-71.544
X137.351Y-74.084
X137.351Y-76.624
X137.351Y-79.164
X137.351Y-81.704
X137.351Y-84.244
X137.351Y-86.784
X137.351Y-89.324
X137.351Y-91.864
X137.351Y-94.404
X137.351Y-96.944
X137.351Y-99.484
X137.351Y-102.024
X137.351Y-104.564
X139.891Y-61.384
X139.891Y-63.924
X139.891Y-66.464
X139.891Y-69.004
X139.891Y-71.544
X139.891Y-74.084
X139.891Y-76.624
X139.891Y-79.164
X139.891Y-81.704
X139.891Y-84.244
X139.891Y-86.784
X139.891Y-89.324
X139.891Y-91.864
X139.891Y-94.404
X139.891Y-96.944
X139.891Y-99.484
X139.891Y-102.024
X139.891Y-104.564
X162.751Y-61.384
X162.751Y-63.924
X162.751Y-66.464
X162.751Y-69.004
X162.751Y-71.544
X162.751Y-74.084
X162.751Y-76.624
X162.751Y-79.164
X162.751Y-81.704
X162.751Y-84.244
X162.751Y-86.784
X162.751Y-89.324
X162.751Y-91.864
X162.751Y-94.404
X162.751Y-96.944
X162.751Y-99.484
X162.751Y-102.024
X162.751Y-104.564
X165.291Y-61.384
X165.291Y-63.924
X165.291Y-66.464
X165.291Y-69.004
X165.291Y-71.544
X165.291Y-74.084
X165.291Y-76.624
X165.291Y-79.164
X165.291Y-81.704
X165.291Y-84.244
X165.291Y-86.784
X165.291Y-89.324
X165.291Y-91.864
X165.291Y-94.404
X165.291Y-96.944
X165.291Y-99.484
X165.291Y-102.024
X165.291Y-104.564
T3
X190.411Y-69.444
X192.911Y-69.444
X194.911Y-69.444
X197.411Y-69.444
T4
X124.411Y-143.104
X126.911Y-143.104
X129.411Y-143.104
X167.591Y-143.104
X170.091Y-143.104
X172.591Y-143.104
X181.521Y-65.634
X181.521Y-68.174
X181.521Y-70.714
X181.521Y-73.254
X181.521Y-75.794
X181.521Y-78.334
X181.521Y-80.874
X181.521Y-83.414
X181.521Y-85.954
X181.521Y-88.494
X181.521Y-91.034
X181.521Y-93.574
X181.521Y-96.114
X181.521Y-98.654
X181.521Y-101.194
X181.521Y-103.734
X181.521Y-106.274
X181.521Y-108.814
X181.521Y-111.354
X181.521Y-113.894
T5
X97.801Y-127.904
X97.801Y-132.904
X110.301Y-127.904
X110.301Y-132.904
X191.781Y-127.904
X191.781Y-132.904
X204.281Y-127.904
X204.281Y-132.904
T6
X187.341Y-66.734
X200.481Y-66.734
T7
X105.321Y-61.189
X105.321Y-118.339
X181.521Y-61.189
X181.521Y-118.339
T8
X90.081Y-60.554
X90.081Y-150.724
X206.921Y-60.554
X206.921Y-150.724
M30
