%TF.GenerationSoftware,KiCad,Pcbnew,10.0.0*%
%TF.CreationDate,2026-05-05T15:08:22-05:00*%
%TF.ProjectId,Nicholas_Melendez_EtchASketch,4e696368-6f6c-4617-935f-4d656c656e64,1*%
%TF.SameCoordinates,Original*%
%TF.FileFunction,Copper,L1,Top*%
%TF.FilePolarity,Positive*%
%FSLAX46Y46*%
G04 Gerber Fmt 4.6, Leading zero omitted, Abs format (unit mm)*
G04 Created by KiCad (PCBNEW 10.0.0) date 2026-05-05 15:08:22*
%MOMM*%
%LPD*%
G01*
G04 APERTURE LIST*
G04 Aperture macros list*
%AMRoundRect*
0 Rectangle with rounded corners*
0 $1 Rounding radius*
0 $2 $3 $4 $5 $6 $7 $8 $9 X,Y pos of 4 corners*
0 Add a 4 corners polygon primitive as box body*
4,1,4,$2,$3,$4,$5,$6,$7,$8,$9,$2,$3,0*
0 Add four circle primitives for the rounded corners*
1,1,$1+$1,$2,$3*
1,1,$1+$1,$4,$5*
1,1,$1+$1,$6,$7*
1,1,$1+$1,$8,$9*
0 Add four rect primitives between the rounded corners*
20,1,$1+$1,$2,$3,$4,$5,0*
20,1,$1+$1,$4,$5,$6,$7,0*
20,1,$1+$1,$6,$7,$8,$9,0*
20,1,$1+$1,$8,$9,$2,$3,0*%
%AMOutline5P*
0 Free polygon, 5 corners , with rotation*
0 The origin of the aperture is its center*
0 number of corners: always 5*
0 $1 to $10 corner X, Y*
0 $11 Rotation angle, in degrees counterclockwise*
0 create outline with 5 corners*
4,1,5,$1,$2,$3,$4,$5,$6,$7,$8,$9,$10,$1,$2,$11*%
%AMOutline6P*
0 Free polygon, 6 corners , with rotation*
0 The origin of the aperture is its center*
0 number of corners: always 6*
0 $1 to $12 corner X, Y*
0 $13 Rotation angle, in degrees counterclockwise*
0 create outline with 6 corners*
4,1,6,$1,$2,$3,$4,$5,$6,$7,$8,$9,$10,$11,$12,$1,$2,$13*%
%AMOutline7P*
0 Free polygon, 7 corners , with rotation*
0 The origin of the aperture is its center*
0 number of corners: always 7*
0 $1 to $14 corner X, Y*
0 $15 Rotation angle, in degrees counterclockwise*
0 create outline with 7 corners*
4,1,7,$1,$2,$3,$4,$5,$6,$7,$8,$9,$10,$11,$12,$13,$14,$1,$2,$15*%
%AMOutline8P*
0 Free polygon, 8 corners , with rotation*
0 The origin of the aperture is its center*
0 number of corners: always 8*
0 $1 to $16 corner X, Y*
0 $17 Rotation angle, in degrees counterclockwise*
0 create outline with 8 corners*
4,1,8,$1,$2,$3,$4,$5,$6,$7,$8,$9,$10,$11,$12,$13,$14,$15,$16,$1,$2,$17*%
G04 Aperture macros list end*
%ADD10C,0.142240*%
%TA.AperFunction,NonConductor*%
%ADD11C,0.142240*%
%TD*%
%TA.AperFunction,ComponentPad*%
%ADD12C,1.960000*%
%TD*%
%TA.AperFunction,ComponentPad*%
%ADD13C,1.400000*%
%TD*%
%TA.AperFunction,ComponentPad*%
%ADD14C,4.445000*%
%TD*%
%TA.AperFunction,SMDPad,CuDef*%
%ADD15RoundRect,0.508000X-0.000010X-0.000010X0.000010X-0.000010X0.000010X0.000010X-0.000010X0.000010X0*%
%TD*%
%TA.AperFunction,SMDPad,CuDef*%
%ADD16R,0.800000X0.800000*%
%TD*%
%TA.AperFunction,ComponentPad*%
%ADD17C,1.676400*%
%TD*%
%TA.AperFunction,ComponentPad*%
%ADD18R,1.676400X1.676400*%
%TD*%
%TA.AperFunction,ComponentPad*%
%ADD19C,3.600000*%
%TD*%
%TA.AperFunction,SMDPad,CuDef*%
%ADD20R,1.031240X0.949959*%
%TD*%
%TA.AperFunction,SMDPad,CuDef*%
%ADD21R,0.949959X1.031240*%
%TD*%
%TA.AperFunction,ComponentPad*%
%ADD22R,1.524000X1.524000*%
%TD*%
%TA.AperFunction,ComponentPad*%
%ADD23Outline8P,-0.762000X0.315631X-0.315631X0.762000X0.315631X0.762000X0.762000X0.315631X0.762000X-0.315631X0.315631X-0.762000X-0.315631X-0.762000X-0.762000X-0.315631X270.000000*%
%TD*%
%TA.AperFunction,ComponentPad*%
%ADD24R,1.288000X1.288000*%
%TD*%
%TA.AperFunction,ComponentPad*%
%ADD25C,1.288000*%
%TD*%
%TA.AperFunction,ComponentPad*%
%ADD26C,3.220000*%
%TD*%
%TA.AperFunction,ViaPad*%
%ADD27C,0.609600*%
%TD*%
%TA.AperFunction,Conductor*%
%ADD28C,0.254000*%
%TD*%
G04 APERTURE END LIST*
D10*
D11*
D12*
%TO.P,SW2,1*%
%TO.N,BUTTON_2*%
X97801100Y-127903600D03*
%TO.P,SW2,2*%
%TO.N,GND*%
X97801100Y-132903600D03*
%TO.P,SW2,3*%
%TO.N,BUTTON_2*%
X110301100Y-127903600D03*
%TO.P,SW2,4*%
%TO.N,GND*%
X110301100Y-132903600D03*
%TD*%
D13*
%TO.P,R1,CCW*%
%TO.N,VDD_1P8V*%
X124411100Y-143103600D03*
%TO.P,R1,CW*%
%TO.N,ANALOG_GND*%
X129411100Y-143103600D03*
%TO.P,R1,S*%
%TO.N,POT_1*%
X126911100Y-143103600D03*
%TD*%
D14*
%TO.P,MGT1,P$1*%
%TO.N,CGND*%
X90081100Y-150723600D03*
%TD*%
%TO.P,MGT4,P$1*%
%TO.N,CGND*%
X90081100Y-60553600D03*
%TD*%
D12*
%TO.P,SW1,1*%
%TO.N,BUTTON_1*%
X191781100Y-127903600D03*
%TO.P,SW1,2*%
%TO.N,GND*%
X191781100Y-132903600D03*
%TO.P,SW1,3*%
%TO.N,BUTTON_1*%
X204281100Y-127903600D03*
%TO.P,SW1,4*%
%TO.N,GND*%
X204281100Y-132903600D03*
%TD*%
D15*
%TO.P,FUD1,P$1*%
%TO.N,N/C*%
X95161100Y-60553600D03*
%TD*%
D16*
%TO.P,D1,ANODE*%
%TO.N,BLUE_LED*%
X94411100Y-102463600D03*
%TO.P,D1,CATHODE*%
%TO.N,GND*%
X95911100Y-102463600D03*
%TD*%
D17*
%TO.P,SPIDISPLAY0,3VO*%
%TO.N,N/C*%
X181521100Y-108813600D03*
%TO.P,SPIDISPLAY0,12@JP2*%
X181521100Y-85953600D03*
%TO.P,SPIDISPLAY0,13@JP2*%
X181521100Y-83413600D03*
%TO.P,SPIDISPLAY0,14@JP2*%
X181521100Y-80873600D03*
%TO.P,SPIDISPLAY0,15@JP2*%
X181521100Y-78333600D03*
%TO.P,SPIDISPLAY0,16@JP2*%
X181521100Y-75793600D03*
%TO.P,SPIDISPLAY0,17@JP2*%
X181521100Y-73253600D03*
%TO.P,SPIDISPLAY0,18@JP2*%
X181521100Y-70713600D03*
%TO.P,SPIDISPLAY0,19@JP2*%
X181521100Y-68173600D03*
%TO.P,SPIDISPLAY0,20@JP2*%
X181521100Y-65633600D03*
%TO.P,SPIDISPLAY0,CLK*%
%TO.N,CLK*%
X181521100Y-106273600D03*
%TO.P,SPIDISPLAY0,CS*%
%TO.N,CS*%
X181521100Y-98653600D03*
%TO.P,SPIDISPLAY0,DC*%
%TO.N,DC*%
X181521100Y-96113600D03*
D18*
%TO.P,SPIDISPLAY0,GND*%
%TO.N,GND*%
X181521100Y-113893600D03*
D17*
%TO.P,SPIDISPLAY0,GND@1*%
%TO.N,N/C*%
X181521100Y-88493600D03*
%TO.P,SPIDISPLAY0,LITE*%
X181521100Y-91033600D03*
%TO.P,SPIDISPLAY0,MISO*%
%TO.N,MISO*%
X181521100Y-103733600D03*
%TO.P,SPIDISPLAY0,MOSI*%
%TO.N,MOSI*%
X181521100Y-101193600D03*
D19*
%TO.P,SPIDISPLAY0,P$1@U$7*%
%TO.N,N/C*%
X181521100Y-118338600D03*
%TO.P,SPIDISPLAY0,P$1@U$15*%
X181521100Y-61188600D03*
%TO.P,SPIDISPLAY0,P$1@U$16*%
X105321100Y-118338600D03*
%TO.P,SPIDISPLAY0,P$1@U$17*%
X105321100Y-61188600D03*
D17*
%TO.P,SPIDISPLAY0,RST*%
%TO.N,RST*%
X181521100Y-93573600D03*
%TO.P,SPIDISPLAY0,VIN*%
%TO.N,VDD_3P3V*%
X181521100Y-111353600D03*
%TD*%
D14*
%TO.P,MGT2,P$1*%
%TO.N,CGND*%
X206921100Y-150723600D03*
%TD*%
D16*
%TO.P,D2,ANODE*%
%TO.N,GREEN_LED*%
X94411100Y-84683600D03*
%TO.P,D2,CATHODE*%
%TO.N,GND*%
X95911100Y-84683600D03*
%TD*%
D14*
%TO.P,MGT3,P$1*%
%TO.N,CGND*%
X206921100Y-60553600D03*
%TD*%
D16*
%TO.P,D3,ANODE*%
%TO.N,RED_LED*%
X94411100Y-68173600D03*
%TO.P,D3,CATHODE*%
%TO.N,GND*%
X95911100Y-68173600D03*
%TD*%
D13*
%TO.P,R2,CCW*%
%TO.N,VDD_1P8V*%
X167591100Y-143103600D03*
%TO.P,R2,CW*%
%TO.N,ANALOG_GND*%
X172591100Y-143103600D03*
%TO.P,R2,S*%
%TO.N,POT_2*%
X170091100Y-143103600D03*
%TD*%
D20*
%TO.P,R4,1*%
%TO.N,BUTTON_2*%
X110401100Y-123583700D03*
%TO.P,R4,2*%
%TO.N,VDD_3P3V*%
X110401100Y-121983500D03*
%TD*%
D21*
%TO.P,R3,1*%
%TO.N,CGND*%
X89281000Y-68173600D03*
%TO.P,R3,2*%
%TO.N,GND*%
X90881200Y-68173600D03*
%TD*%
D15*
%TO.P,FUD3,P$1*%
%TO.N,N/C*%
X97701100Y-150723600D03*
%TD*%
D21*
%TO.P,R5,1*%
%TO.N,BUTTON_1*%
X192481200Y-125323600D03*
%TO.P,R5,2*%
%TO.N,VDD_3P3V*%
X190881000Y-125323600D03*
%TD*%
D15*
%TO.P,FUD2,P$1*%
%TO.N,N/C*%
X196761100Y-150723600D03*
%TD*%
D22*
%TO.P,U1,P1_01*%
%TO.N,VIN*%
X165291100Y-61383600D03*
D23*
%TO.P,U1,P1_02*%
%TO.N,N/C*%
X162751100Y-61383600D03*
%TO.P,U1,P1_03*%
X165291100Y-63923600D03*
%TO.P,U1,P1_04*%
%TO.N,BUTTON_1*%
X162751100Y-63923600D03*
%TO.P,U1,P1_05*%
%TO.N,N/C*%
X165291100Y-66463600D03*
%TO.P,U1,P1_06*%
X162751100Y-66463600D03*
%TO.P,U1,P1_07*%
X165291100Y-69003600D03*
%TO.P,U1,P1_08*%
X162751100Y-69003600D03*
%TO.P,U1,P1_09*%
%TO.N,DM*%
X165291100Y-71543600D03*
%TO.P,U1,P1_10*%
%TO.N,N/C*%
X162751100Y-71543600D03*
%TO.P,U1,P1_11*%
%TO.N,DP*%
X165291100Y-74083600D03*
%TO.P,U1,P1_12*%
%TO.N,N/C*%
X162751100Y-74083600D03*
%TO.P,U1,P1_13*%
X165291100Y-76623600D03*
%TO.P,U1,P1_14*%
%TO.N,VDD_3P3V*%
X162751100Y-76623600D03*
%TO.P,U1,P1_15*%
%TO.N,GND*%
X165291100Y-79163600D03*
%TO.P,U1,P1_16*%
X162751100Y-79163600D03*
%TO.P,U1,P1_17*%
%TO.N,ANALOG_GND*%
X165291100Y-81703600D03*
%TO.P,U1,P1_18*%
%TO.N,VDD_1P8V*%
X162751100Y-81703600D03*
%TO.P,U1,P1_19*%
%TO.N,POT_1*%
X165291100Y-84243600D03*
%TO.P,U1,P1_20*%
%TO.N,N/C*%
X162751100Y-84243600D03*
%TO.P,U1,P1_21*%
%TO.N,POT_2*%
X165291100Y-86783600D03*
%TO.P,U1,P1_22*%
%TO.N,GND*%
X162751100Y-86783600D03*
%TO.P,U1,P1_23*%
%TO.N,N/C*%
X165291100Y-89323600D03*
%TO.P,U1,P1_24*%
%TO.N,VDD_5V*%
X162751100Y-89323600D03*
%TO.P,U1,P1_25*%
%TO.N,N/C*%
X165291100Y-91863600D03*
%TO.P,U1,P1_26*%
X162751100Y-91863600D03*
%TO.P,U1,P1_27*%
X165291100Y-94403600D03*
%TO.P,U1,P1_28*%
X162751100Y-94403600D03*
%TO.P,U1,P1_29*%
X165291100Y-96943600D03*
%TO.P,U1,P1_30*%
X162751100Y-96943600D03*
%TO.P,U1,P1_31*%
X165291100Y-99483600D03*
%TO.P,U1,P1_32*%
X162751100Y-99483600D03*
%TO.P,U1,P1_33*%
X165291100Y-102023600D03*
%TO.P,U1,P1_34*%
%TO.N,BUTTON_2*%
X162751100Y-102023600D03*
%TO.P,U1,P1_35*%
%TO.N,N/C*%
X165291100Y-104563600D03*
%TO.P,U1,P1_36*%
X162751100Y-104563600D03*
D22*
%TO.P,U1,P2_01*%
X139891100Y-61383600D03*
D23*
%TO.P,U1,P2_02*%
X137351100Y-61383600D03*
%TO.P,U1,P2_03*%
X139891100Y-63923600D03*
%TO.P,U1,P2_04*%
X137351100Y-63923600D03*
%TO.P,U1,P2_05*%
X139891100Y-66463600D03*
%TO.P,U1,P2_06*%
%TO.N,RED_LED*%
X137351100Y-66463600D03*
%TO.P,U1,P2_07*%
%TO.N,N/C*%
X139891100Y-69003600D03*
%TO.P,U1,P2_08*%
X137351100Y-69003600D03*
%TO.P,U1,P2_09*%
X139891100Y-71543600D03*
%TO.P,U1,P2_10*%
%TO.N,GREEN_LED*%
X137351100Y-71543600D03*
%TO.P,U1,P2_11*%
%TO.N,N/C*%
X139891100Y-74083600D03*
%TO.P,U1,P2_12*%
X137351100Y-74083600D03*
%TO.P,U1,P2_13*%
%TO.N,VDD_5V*%
X139891100Y-76623600D03*
%TO.P,U1,P2_14*%
%TO.N,BAT.VIN*%
X137351100Y-76623600D03*
%TO.P,U1,P2_15*%
%TO.N,GND*%
X139891100Y-79163600D03*
%TO.P,U1,P2_16*%
%TO.N,N/C*%
X137351100Y-79163600D03*
%TO.P,U1,P2_17*%
X139891100Y-81703600D03*
%TO.P,U1,P2_18*%
%TO.N,BLUE_LED*%
X137351100Y-81703600D03*
%TO.P,U1,P2_19*%
%TO.N,RST*%
X139891100Y-84243600D03*
%TO.P,U1,P2_20*%
%TO.N,N/C*%
X137351100Y-84243600D03*
%TO.P,U1,P2_21*%
%TO.N,GND*%
X139891100Y-86783600D03*
%TO.P,U1,P2_22*%
%TO.N,N/C*%
X137351100Y-86783600D03*
%TO.P,U1,P2_23*%
%TO.N,VDD_3P3V*%
X139891100Y-89323600D03*
%TO.P,U1,P2_24*%
%TO.N,DC*%
X137351100Y-89323600D03*
%TO.P,U1,P2_25*%
%TO.N,MOSI*%
X139891100Y-91863600D03*
%TO.P,U1,P2_26*%
%TO.N,N/C*%
X137351100Y-91863600D03*
%TO.P,U1,P2_27*%
%TO.N,MISO*%
X139891100Y-94403600D03*
%TO.P,U1,P2_28*%
%TO.N,N/C*%
X137351100Y-94403600D03*
%TO.P,U1,P2_29*%
%TO.N,CLK*%
X139891100Y-96943600D03*
%TO.P,U1,P2_30*%
%TO.N,N/C*%
X137351100Y-96943600D03*
%TO.P,U1,P2_31*%
%TO.N,CS*%
X139891100Y-99483600D03*
%TO.P,U1,P2_32*%
%TO.N,N/C*%
X137351100Y-99483600D03*
%TO.P,U1,P2_33*%
X139891100Y-102023600D03*
%TO.P,U1,P2_34*%
X137351100Y-102023600D03*
%TO.P,U1,P2_35*%
X139891100Y-104563600D03*
%TO.P,U1,P2_36*%
X137351100Y-104563600D03*
%TD*%
D24*
%TO.P,USBPORT0,1*%
%TO.N,VDD_5V*%
X190411100Y-69443600D03*
D25*
%TO.P,USBPORT0,2*%
%TO.N,DM*%
X192911100Y-69443600D03*
%TO.P,USBPORT0,3*%
%TO.N,DP*%
X194911100Y-69443600D03*
%TO.P,USBPORT0,4*%
%TO.N,GND*%
X197411100Y-69443600D03*
D26*
%TO.P,USBPORT0,SH1*%
%TO.N,CGND*%
X187341100Y-66733600D03*
%TO.P,USBPORT0,SH2*%
X200481100Y-66733600D03*
%TD*%
D27*
%TO.N,GND*%
X92621100Y-64363600D03*
X97701100Y-84683600D03*
X97701100Y-69443600D03*
X97701100Y-102463600D03*
X95161100Y-132943600D03*
%TO.N,VDD_1P8V*%
X161201100Y-143103600D03*
X151041100Y-82143600D03*
%TD*%
%TO.N,BUTTON_2*%
D28*
X141191000Y-123583700D02*
X110401100Y-123583700D01*
X110401100Y-123583700D02*
X110301100Y-123483700D01*
X162751100Y-102023600D02*
X141191000Y-123583700D01*
X97801100Y-127903600D02*
X110261100Y-127903600D01*
X110261100Y-127903600D02*
X110301100Y-127863600D01*
X110301100Y-123483700D02*
X110301100Y-127863600D01*
X110301100Y-127863600D02*
X110301100Y-127903600D01*
%TO.N,GND*%
X95749912Y-68173600D02*
X95911100Y-68173600D01*
X95911100Y-84683600D02*
X97701100Y-84683600D01*
X97801100Y-132903600D02*
X97761100Y-132943600D01*
X96431100Y-68173600D02*
X97701100Y-69443600D01*
X92621100Y-66433700D02*
X92621100Y-64363600D01*
X95911100Y-102463600D02*
X97701100Y-102463600D01*
X97761100Y-132943600D02*
X95161100Y-132943600D01*
X95911100Y-68173600D02*
X96431100Y-68173600D01*
X90881200Y-68173600D02*
X92621100Y-66433700D01*
%TO.N,VDD_1P8V*%
X130939868Y-143103600D02*
X161201100Y-143103600D01*
X124411100Y-143103600D02*
X125382331Y-143103600D01*
X167591100Y-143103600D02*
X161201100Y-143103600D01*
X126463331Y-142022600D02*
X129858868Y-142022600D01*
X125382331Y-143103600D02*
X126463331Y-142022600D01*
X151481100Y-81703600D02*
X162751100Y-81703600D01*
X151041100Y-82143600D02*
X151481100Y-81703600D01*
X129858868Y-142022600D02*
X130939868Y-143103600D01*
%TO.N,ANALOG_GND*%
X129411100Y-146873600D02*
X130721100Y-148183600D01*
X167511100Y-148183600D02*
X172591100Y-143103600D01*
X129411100Y-143103600D02*
X129411100Y-146873600D01*
X130721100Y-148183600D02*
X167511100Y-148183600D01*
%TO.N,CGND*%
X89281000Y-68173600D02*
X89281000Y-61353700D01*
X89281000Y-61353700D02*
X90081100Y-60553600D01*
%TO.N,BUTTON_1*%
X191781100Y-127903600D02*
X204281100Y-127903600D01*
X191781100Y-126023700D02*
X192481200Y-125323600D01*
X191781100Y-127903600D02*
X191781100Y-126023700D01*
%TO.N,BLUE_LED*%
X94411100Y-102463600D02*
X115171100Y-81703600D01*
X115171100Y-81703600D02*
X137351100Y-81703600D01*
%TO.N,CLK*%
X161134650Y-96943600D02*
X162531650Y-98340600D01*
X139891100Y-96943600D02*
X161134650Y-96943600D01*
X173588100Y-98340600D02*
X181521100Y-106273600D01*
X162531650Y-98340600D02*
X173588100Y-98340600D01*
%TO.N,CS*%
X181521100Y-99469388D02*
X181521100Y-98653600D01*
X181016087Y-107492800D02*
X182026112Y-107492800D01*
X161134650Y-99483600D02*
X162531650Y-100880600D01*
X182740300Y-100688588D02*
X181521100Y-99469388D01*
X182740300Y-106778613D02*
X182740300Y-100688588D01*
X174403887Y-100880600D02*
X181016087Y-107492800D01*
X182026112Y-107492800D02*
X182740300Y-106778613D01*
X162531650Y-100880600D02*
X174403887Y-100880600D01*
X139891100Y-99483600D02*
X161134650Y-99483600D01*
%TO.N,DC*%
X139417650Y-88180600D02*
X138274650Y-89323600D01*
X138274650Y-89323600D02*
X137351100Y-89323600D01*
X140364550Y-88180600D02*
X139417650Y-88180600D01*
X181521100Y-96113600D02*
X176128100Y-90720600D01*
X142904550Y-90720600D02*
X140364550Y-88180600D01*
X176128100Y-90720600D02*
X142904550Y-90720600D01*
%TO.N,MISO*%
X173588100Y-95800600D02*
X181521100Y-103733600D01*
X139891100Y-94403600D02*
X161134650Y-94403600D01*
X161134650Y-94403600D02*
X162531650Y-95800600D01*
X162531650Y-95800600D02*
X173588100Y-95800600D01*
%TO.N,MOSI*%
X162531650Y-93260600D02*
X173588100Y-93260600D01*
X173588100Y-93260600D02*
X181521100Y-101193600D01*
X139891100Y-91863600D02*
X161134650Y-91863600D01*
X161134650Y-91863600D02*
X162531650Y-93260600D01*
%TO.N,RST*%
X139891100Y-84243600D02*
X161134650Y-84243600D01*
X162277650Y-83100600D02*
X171048100Y-83100600D01*
X161134650Y-84243600D02*
X162277650Y-83100600D01*
X171048100Y-83100600D02*
X181521100Y-93573600D01*
%TO.N,VDD_3P3V*%
X180301900Y-112897588D02*
X181521100Y-111678388D01*
X137131650Y-93006600D02*
X137824550Y-93006600D01*
X180301900Y-114889613D02*
X180301900Y-112897588D01*
X180525087Y-115112800D02*
X180301900Y-114889613D01*
X110401100Y-119737150D02*
X137131650Y-93006600D01*
X139891100Y-89323600D02*
X138494100Y-90720600D01*
X138494100Y-90720600D02*
X138494100Y-92337050D01*
X190881000Y-125323600D02*
X183910100Y-118352700D01*
X138494100Y-92337050D02*
X137824550Y-93006600D01*
X110401100Y-121983500D02*
X110401100Y-119737150D01*
X181673856Y-115112800D02*
X180525087Y-115112800D01*
X183910100Y-117349044D02*
X181673856Y-115112800D01*
X181521100Y-111678388D02*
X181521100Y-111353600D01*
X183910100Y-118352700D02*
X183910100Y-117349044D01*
%TO.N,GREEN_LED*%
X107551100Y-71543600D02*
X137351100Y-71543600D01*
X94411100Y-84683600D02*
X107551100Y-71543600D01*
%TO.N,RED_LED*%
X95353287Y-67392600D02*
X136422100Y-67392600D01*
X94411100Y-68173600D02*
X94572287Y-68173600D01*
X94572287Y-68173600D02*
X95353287Y-67392600D01*
X136422100Y-67392600D02*
X137351100Y-66463600D01*
%TO.N,VDD_5V*%
X141034100Y-82177050D02*
X140110550Y-83100600D01*
X138748100Y-83770150D02*
X138748100Y-84717050D01*
X140110550Y-83100600D02*
X139417650Y-83100600D01*
X141034100Y-77766600D02*
X141034100Y-82177050D01*
X163894100Y-87257050D02*
X162751100Y-88400050D01*
X138748100Y-84717050D02*
X139671650Y-85640600D01*
X163894100Y-86310150D02*
X163894100Y-87257050D01*
X139417650Y-83100600D02*
X138748100Y-83770150D01*
X162751100Y-88400050D02*
X162751100Y-89323600D01*
X139671650Y-85640600D02*
X163224550Y-85640600D01*
X163224550Y-85640600D02*
X163894100Y-86310150D01*
X139891100Y-76623600D02*
X141034100Y-77766600D01*
%TD*%
M02*
